<mxfile host="app.diagrams.net" modified="2023-11-09T13:46:11.654Z" agent="Mozilla/5.0 (Windows NT 10.0; Win64; x64; rv:109.0) Gecko/20100101 Firefox/119.0" version="22.1.0" etag="P9GlTtrIjMeUAILbwqFe" type="github">
  <diagram name="Page-1" id="Tp8htie_owTlGBTcX6JP">
    <mxGraphModel dx="3147" dy="1709" grid="0" gridSize="10" guides="1" tooltips="1" connect="1" arrows="1" fold="1" page="0" pageScale="1" pageWidth="827" pageHeight="1169" background="none" math="0" shadow="0">
      <root>
        <mxCell id="0" />
        <mxCell id="1" parent="0" />
        <mxCell id="n4U7ndQowQ5HId22_Uco-2" value="Certification" style="swimlane;fontStyle=0;childLayout=stackLayout;horizontal=1;startSize=30;horizontalStack=0;resizeParent=1;resizeParentMax=0;resizeLast=0;collapsible=1;marginBottom=0;whiteSpace=wrap;html=1;rounded=0;labelBackgroundColor=none;shadow=0;swimlaneLine=1;fillOpacity=100;snapToPoint=0;fixDash=0;metaEdit=0;backgroundOutline=0;enumerate=0;comic=0;strokeColor=default;" parent="1" vertex="1">
          <mxGeometry x="87" y="-177" width="230" height="210" as="geometry">
            <mxRectangle x="-190" y="630" width="100" height="30" as="alternateBounds" />
          </mxGeometry>
        </mxCell>
        <mxCell id="n4U7ndQowQ5HId22_Uco-3" value="int: id" style="text;align=left;verticalAlign=middle;spacingLeft=4;spacingRight=4;overflow=hidden;points=[[0,0.5],[1,0.5]];portConstraint=eastwest;rotatable=0;whiteSpace=wrap;html=1;rounded=0;labelBackgroundColor=none;shadow=0;swimlaneLine=1;fillOpacity=100;snapToPoint=0;fixDash=0;metaEdit=0;backgroundOutline=0;enumerate=0;comic=0;strokeColor=default;" parent="n4U7ndQowQ5HId22_Uco-2" vertex="1">
          <mxGeometry y="30" width="230" height="30" as="geometry" />
        </mxCell>
        <mxCell id="17" value="string: type ( RNCP | RS )" style="text;align=left;verticalAlign=middle;spacingLeft=4;spacingRight=4;overflow=hidden;points=[[0,0.5],[1,0.5]];portConstraint=eastwest;rotatable=0;whiteSpace=wrap;html=1;rounded=0;labelBackgroundColor=none;shadow=0;swimlaneLine=1;fillOpacity=100;snapToPoint=0;fixDash=0;metaEdit=0;backgroundOutline=0;enumerate=0;comic=0;strokeColor=default;" parent="n4U7ndQowQ5HId22_Uco-2" vertex="1">
          <mxGeometry y="60" width="230" height="30" as="geometry" />
        </mxCell>
        <mxCell id="n4U7ndQowQ5HId22_Uco-4" value="string: code ( RNCPXXXXX | RSXXXX )" style="text;align=left;verticalAlign=middle;spacingLeft=4;spacingRight=4;overflow=hidden;points=[[0,0.5],[1,0.5]];portConstraint=eastwest;rotatable=0;whiteSpace=wrap;html=1;rounded=0;labelBackgroundColor=none;shadow=0;swimlaneLine=1;fillOpacity=100;snapToPoint=0;fixDash=0;metaEdit=0;backgroundOutline=0;enumerate=0;comic=0;strokeColor=default;" parent="n4U7ndQowQ5HId22_Uco-2" vertex="1">
          <mxGeometry y="90" width="230" height="30" as="geometry" />
        </mxCell>
        <mxCell id="n4U7ndQowQ5HId22_Uco-5" value="string: name" style="text;align=left;verticalAlign=middle;spacingLeft=4;spacingRight=4;overflow=hidden;points=[[0,0.5],[1,0.5]];portConstraint=eastwest;rotatable=0;whiteSpace=wrap;html=1;rounded=0;labelBackgroundColor=none;shadow=0;swimlaneLine=1;fillOpacity=100;snapToPoint=0;fixDash=0;metaEdit=0;backgroundOutline=0;enumerate=0;comic=0;strokeColor=default;" parent="n4U7ndQowQ5HId22_Uco-2" vertex="1">
          <mxGeometry y="120" width="230" height="30" as="geometry" />
        </mxCell>
        <mxCell id="n4U7ndQowQ5HId22_Uco-6" value="date: startDate" style="text;align=left;verticalAlign=middle;spacingLeft=4;spacingRight=4;overflow=hidden;points=[[0,0.5],[1,0.5]];portConstraint=eastwest;rotatable=0;whiteSpace=wrap;html=1;rounded=0;labelBackgroundColor=none;shadow=0;swimlaneLine=1;fillOpacity=100;snapToPoint=0;fixDash=0;metaEdit=0;backgroundOutline=0;enumerate=0;comic=0;strokeColor=default;" parent="n4U7ndQowQ5HId22_Uco-2" vertex="1">
          <mxGeometry y="150" width="230" height="30" as="geometry" />
        </mxCell>
        <mxCell id="n4U7ndQowQ5HId22_Uco-7" value="date: endDate" style="text;align=left;verticalAlign=middle;spacingLeft=4;spacingRight=4;overflow=hidden;points=[[0,0.5],[1,0.5]];portConstraint=eastwest;rotatable=0;whiteSpace=wrap;html=1;rounded=0;labelBackgroundColor=none;shadow=0;swimlaneLine=1;fillOpacity=100;snapToPoint=0;fixDash=0;metaEdit=0;backgroundOutline=0;enumerate=0;comic=0;strokeColor=default;" parent="n4U7ndQowQ5HId22_Uco-2" vertex="1">
          <mxGeometry y="180" width="230" height="30" as="geometry" />
        </mxCell>
        <mxCell id="n4U7ndQowQ5HId22_Uco-8" value="Passage Certification" style="swimlane;fontStyle=0;childLayout=stackLayout;horizontal=1;startSize=30;horizontalStack=0;resizeParent=1;resizeParentMax=0;resizeLast=0;collapsible=1;marginBottom=0;whiteSpace=wrap;html=1;rounded=0;labelBackgroundColor=none;shadow=0;swimlaneLine=1;fillOpacity=100;snapToPoint=0;fixDash=0;metaEdit=0;backgroundOutline=0;enumerate=0;comic=0;strokeColor=default;" parent="1" vertex="1">
          <mxGeometry x="188" y="350" width="400" height="360" as="geometry" />
        </mxCell>
        <mxCell id="n4U7ndQowQ5HId22_Uco-9" value="uuid: id" style="text;align=left;verticalAlign=middle;spacingLeft=4;spacingRight=4;overflow=hidden;points=[[0,0.5],[1,0.5]];portConstraint=eastwest;rotatable=0;whiteSpace=wrap;html=1;rounded=0;labelBackgroundColor=none;shadow=0;swimlaneLine=1;fillOpacity=100;snapToPoint=0;fixDash=0;metaEdit=0;backgroundOutline=0;enumerate=0;comic=0;strokeColor=default;" parent="n4U7ndQowQ5HId22_Uco-8" vertex="1">
          <mxGeometry y="30" width="400" height="30" as="geometry" />
        </mxCell>
        <mxCell id="n4U7ndQowQ5HId22_Uco-10" value="string: obtentionCertification ( PAR_ADMISSION | PAR_SCORING )" style="text;align=left;verticalAlign=middle;spacingLeft=4;spacingRight=4;overflow=hidden;points=[[0,0.5],[1,0.5]];portConstraint=eastwest;rotatable=0;whiteSpace=wrap;html=1;rounded=0;labelBackgroundColor=none;shadow=0;swimlaneLine=1;fillOpacity=100;snapToPoint=0;fixDash=0;metaEdit=0;backgroundOutline=0;enumerate=0;comic=0;strokeColor=default;" parent="n4U7ndQowQ5HId22_Uco-8" vertex="1">
          <mxGeometry y="60" width="400" height="30" as="geometry" />
        </mxCell>
        <mxCell id="n4U7ndQowQ5HId22_Uco-11" value="bool: donneeCertifiee ( toujours true )" style="text;align=left;verticalAlign=middle;spacingLeft=4;spacingRight=4;overflow=hidden;points=[[0,0.5],[1,0.5]];portConstraint=eastwest;rotatable=0;whiteSpace=wrap;html=1;rounded=0;labelBackgroundColor=none;shadow=0;swimlaneLine=1;fillOpacity=100;snapToPoint=0;fixDash=0;metaEdit=0;backgroundOutline=0;enumerate=0;comic=0;strokeColor=default;" parent="n4U7ndQowQ5HId22_Uco-8" vertex="1">
          <mxGeometry y="90" width="400" height="30" as="geometry" />
        </mxCell>
        <mxCell id="n4U7ndQowQ5HId22_Uco-12" value="date: dateDebutValidite" style="text;align=left;verticalAlign=middle;spacingLeft=4;spacingRight=4;overflow=hidden;points=[[0,0.5],[1,0.5]];portConstraint=eastwest;rotatable=0;whiteSpace=wrap;html=1;rounded=0;labelBackgroundColor=none;shadow=0;swimlaneLine=1;fillOpacity=100;snapToPoint=0;fixDash=0;metaEdit=0;backgroundOutline=0;enumerate=0;comic=0;strokeColor=default;" parent="n4U7ndQowQ5HId22_Uco-8" vertex="1">
          <mxGeometry y="120" width="400" height="30" as="geometry" />
        </mxCell>
        <mxCell id="n4U7ndQowQ5HId22_Uco-13" value="date: dateFinValidite ( toujours nil )" style="text;align=left;verticalAlign=middle;spacingLeft=4;spacingRight=4;overflow=hidden;points=[[0,0.5],[1,0.5]];portConstraint=eastwest;rotatable=0;whiteSpace=wrap;html=1;rounded=0;labelBackgroundColor=none;shadow=0;swimlaneLine=1;fillOpacity=100;snapToPoint=0;fixDash=0;metaEdit=0;backgroundOutline=0;enumerate=0;comic=0;strokeColor=default;" parent="n4U7ndQowQ5HId22_Uco-8" vertex="1">
          <mxGeometry y="150" width="400" height="30" as="geometry" />
        </mxCell>
        <mxCell id="n4U7ndQowQ5HId22_Uco-14" value="bool: presenceNiveauLangueEuro ( toujours faux )" style="text;align=left;verticalAlign=middle;spacingLeft=4;spacingRight=4;overflow=hidden;points=[[0,0.5],[1,0.5]];portConstraint=eastwest;rotatable=0;whiteSpace=wrap;html=1;rounded=0;labelBackgroundColor=none;shadow=0;swimlaneLine=1;fillOpacity=100;snapToPoint=0;fixDash=0;metaEdit=0;backgroundOutline=0;enumerate=0;comic=0;strokeColor=default;" parent="n4U7ndQowQ5HId22_Uco-8" vertex="1">
          <mxGeometry y="180" width="400" height="30" as="geometry" />
        </mxCell>
        <mxCell id="n4U7ndQowQ5HId22_Uco-15" value="bool: presenceNiveauNumeriqueEuro ( toujours faux )" style="text;align=left;verticalAlign=middle;spacingLeft=4;spacingRight=4;overflow=hidden;points=[[0,0.5],[1,0.5]];portConstraint=eastwest;rotatable=0;whiteSpace=wrap;html=1;rounded=0;labelBackgroundColor=none;shadow=0;swimlaneLine=1;fillOpacity=100;snapToPoint=0;fixDash=0;metaEdit=0;backgroundOutline=0;enumerate=0;comic=0;strokeColor=default;" parent="n4U7ndQowQ5HId22_Uco-8" vertex="1">
          <mxGeometry y="210" width="400" height="30" as="geometry" />
        </mxCell>
        <mxCell id="n4U7ndQowQ5HId22_Uco-16" value="string: scoring" style="text;align=left;verticalAlign=middle;spacingLeft=4;spacingRight=4;overflow=hidden;points=[[0,0.5],[1,0.5]];portConstraint=eastwest;rotatable=0;whiteSpace=wrap;html=1;rounded=0;labelBackgroundColor=none;shadow=0;swimlaneLine=1;fillOpacity=100;snapToPoint=0;fixDash=0;metaEdit=0;backgroundOutline=0;enumerate=0;comic=0;strokeColor=default;" parent="n4U7ndQowQ5HId22_Uco-8" vertex="1">
          <mxGeometry y="240" width="400" height="30" as="geometry" />
        </mxCell>
        <mxCell id="n4U7ndQowQ5HId22_Uco-17" value="string: mentionValidee ( toujours nil )" style="text;align=left;verticalAlign=middle;spacingLeft=4;spacingRight=4;overflow=hidden;points=[[0,0.5],[1,0.5]];portConstraint=eastwest;rotatable=0;whiteSpace=wrap;html=1;rounded=0;labelBackgroundColor=none;shadow=0;swimlaneLine=1;fillOpacity=100;snapToPoint=0;fixDash=0;metaEdit=0;backgroundOutline=0;enumerate=0;comic=0;strokeColor=default;" parent="n4U7ndQowQ5HId22_Uco-8" vertex="1">
          <mxGeometry y="270" width="400" height="30" as="geometry" />
        </mxCell>
        <mxCell id="n4U7ndQowQ5HId22_Uco-43" value="int: stagiaire_id" style="text;align=left;verticalAlign=middle;spacingLeft=4;spacingRight=4;overflow=hidden;points=[[0,0.5],[1,0.5]];portConstraint=eastwest;rotatable=0;whiteSpace=wrap;html=1;rounded=0;labelBackgroundColor=none;shadow=0;swimlaneLine=1;fillOpacity=100;snapToPoint=0;fixDash=0;metaEdit=0;backgroundOutline=0;enumerate=0;comic=0;strokeColor=default;" parent="n4U7ndQowQ5HId22_Uco-8" vertex="1">
          <mxGeometry y="300" width="400" height="30" as="geometry" />
        </mxCell>
        <mxCell id="n4U7ndQowQ5HId22_Uco-44" value="int: certification_id" style="text;align=left;verticalAlign=middle;spacingLeft=4;spacingRight=4;overflow=hidden;points=[[0,0.5],[1,0.5]];portConstraint=eastwest;rotatable=0;whiteSpace=wrap;html=1;rounded=0;labelBackgroundColor=none;shadow=0;swimlaneLine=1;fillOpacity=100;snapToPoint=0;fixDash=0;metaEdit=0;backgroundOutline=0;enumerate=0;comic=0;strokeColor=default;" parent="n4U7ndQowQ5HId22_Uco-8" vertex="1">
          <mxGeometry y="330" width="400" height="30" as="geometry" />
        </mxCell>
        <mxCell id="MeiVLNRS7NFo7emPaHsi-109" style="edgeStyle=orthogonalEdgeStyle;rounded=0;orthogonalLoop=1;jettySize=auto;html=1;exitX=0.5;exitY=0;exitDx=0;exitDy=0;entryX=1;entryY=0.081;entryDx=0;entryDy=0;entryPerimeter=0;" edge="1" parent="1" source="n4U7ndQowQ5HId22_Uco-18" target="2">
          <mxGeometry relative="1" as="geometry" />
        </mxCell>
        <mxCell id="n4U7ndQowQ5HId22_Uco-18" value="Stagiaire" style="swimlane;fontStyle=0;childLayout=stackLayout;horizontal=1;startSize=30;horizontalStack=0;resizeParent=1;resizeParentMax=0;resizeLast=0;collapsible=1;marginBottom=0;whiteSpace=wrap;html=1;rounded=0;labelBackgroundColor=none;shadow=0;swimlaneLine=1;fillOpacity=100;snapToPoint=0;fixDash=0;metaEdit=0;backgroundOutline=0;enumerate=0;comic=0;strokeColor=default;" parent="1" vertex="1">
          <mxGeometry x="-223" y="141" width="200" height="450" as="geometry" />
        </mxCell>
        <mxCell id="16" value="int: id" style="text;align=left;verticalAlign=middle;spacingLeft=4;spacingRight=4;overflow=hidden;points=[[0,0.5],[1,0.5]];portConstraint=eastwest;rotatable=0;whiteSpace=wrap;html=1;rounded=0;labelBackgroundColor=none;shadow=0;swimlaneLine=1;fillOpacity=100;snapToPoint=0;fixDash=0;metaEdit=0;backgroundOutline=0;enumerate=0;comic=0;strokeColor=default;" parent="n4U7ndQowQ5HId22_Uco-18" vertex="1">
          <mxGeometry y="30" width="200" height="30" as="geometry" />
        </mxCell>
        <mxCell id="n4U7ndQowQ5HId22_Uco-19" value="string: nomNaissance" style="text;align=left;verticalAlign=middle;spacingLeft=4;spacingRight=4;overflow=hidden;points=[[0,0.5],[1,0.5]];portConstraint=eastwest;rotatable=0;whiteSpace=wrap;html=1;rounded=0;labelBackgroundColor=none;shadow=0;swimlaneLine=1;fillOpacity=100;snapToPoint=0;fixDash=0;metaEdit=0;backgroundOutline=0;enumerate=0;comic=0;strokeColor=default;" parent="n4U7ndQowQ5HId22_Uco-18" vertex="1">
          <mxGeometry y="60" width="200" height="30" as="geometry" />
        </mxCell>
        <mxCell id="n4U7ndQowQ5HId22_Uco-20" value="string: nomUsage" style="text;align=left;verticalAlign=middle;spacingLeft=4;spacingRight=4;overflow=hidden;points=[[0,0.5],[1,0.5]];portConstraint=eastwest;rotatable=0;whiteSpace=wrap;html=1;rounded=0;labelBackgroundColor=none;shadow=0;swimlaneLine=1;fillOpacity=100;snapToPoint=0;fixDash=0;metaEdit=0;backgroundOutline=0;enumerate=0;comic=0;strokeColor=default;" parent="n4U7ndQowQ5HId22_Uco-18" vertex="1">
          <mxGeometry y="90" width="200" height="30" as="geometry" />
        </mxCell>
        <mxCell id="n4U7ndQowQ5HId22_Uco-21" value="string: prenom" style="text;align=left;verticalAlign=middle;spacingLeft=4;spacingRight=4;overflow=hidden;points=[[0,0.5],[1,0.5]];portConstraint=eastwest;rotatable=0;whiteSpace=wrap;html=1;rounded=0;labelBackgroundColor=none;shadow=0;swimlaneLine=1;fillOpacity=100;snapToPoint=0;fixDash=0;metaEdit=0;backgroundOutline=0;enumerate=0;comic=0;strokeColor=default;" parent="n4U7ndQowQ5HId22_Uco-18" vertex="1">
          <mxGeometry y="120" width="200" height="30" as="geometry" />
        </mxCell>
        <mxCell id="n4U7ndQowQ5HId22_Uco-24" value="date: dateNaissance" style="text;align=left;verticalAlign=middle;spacingLeft=4;spacingRight=4;overflow=hidden;points=[[0,0.5],[1,0.5]];portConstraint=eastwest;rotatable=0;whiteSpace=wrap;html=1;rounded=0;labelBackgroundColor=none;shadow=0;swimlaneLine=1;fillOpacity=100;snapToPoint=0;fixDash=0;metaEdit=0;backgroundOutline=0;enumerate=0;comic=0;strokeColor=default;" parent="n4U7ndQowQ5HId22_Uco-18" vertex="1">
          <mxGeometry y="150" width="200" height="30" as="geometry" />
        </mxCell>
        <mxCell id="n4U7ndQowQ5HId22_Uco-25" value="string: sexe ( M | F )" style="text;align=left;verticalAlign=middle;spacingLeft=4;spacingRight=4;overflow=hidden;points=[[0,0.5],[1,0.5]];portConstraint=eastwest;rotatable=0;whiteSpace=wrap;html=1;rounded=0;labelBackgroundColor=none;shadow=0;swimlaneLine=1;fillOpacity=100;snapToPoint=0;fixDash=0;metaEdit=0;backgroundOutline=0;enumerate=0;comic=0;strokeColor=default;" parent="n4U7ndQowQ5HId22_Uco-18" vertex="1">
          <mxGeometry y="180" width="200" height="30" as="geometry" />
        </mxCell>
        <mxCell id="n4U7ndQowQ5HId22_Uco-26" value="int: codePostalNaissance" style="text;align=left;verticalAlign=middle;spacingLeft=4;spacingRight=4;overflow=hidden;points=[[0,0.5],[1,0.5]];portConstraint=eastwest;rotatable=0;whiteSpace=wrap;html=1;rounded=0;labelBackgroundColor=none;shadow=0;swimlaneLine=1;fillOpacity=100;snapToPoint=0;fixDash=0;metaEdit=0;backgroundOutline=0;enumerate=0;comic=0;strokeColor=default;" parent="n4U7ndQowQ5HId22_Uco-18" vertex="1">
          <mxGeometry y="210" width="200" height="30" as="geometry" />
        </mxCell>
        <mxCell id="n4U7ndQowQ5HId22_Uco-27" value="string: idDossierCpf" style="text;align=left;verticalAlign=middle;spacingLeft=4;spacingRight=4;overflow=hidden;points=[[0,0.5],[1,0.5]];portConstraint=eastwest;rotatable=0;whiteSpace=wrap;html=1;rounded=0;labelBackgroundColor=none;shadow=0;swimlaneLine=1;fillOpacity=100;snapToPoint=0;fixDash=0;metaEdit=0;backgroundOutline=0;enumerate=0;comic=0;strokeColor=default;" parent="n4U7ndQowQ5HId22_Uco-18" vertex="1">
          <mxGeometry y="240" width="200" height="30" as="geometry" />
        </mxCell>
        <mxCell id="n4U7ndQowQ5HId22_Uco-46" value="string: email" style="text;align=left;verticalAlign=middle;spacingLeft=4;spacingRight=4;overflow=hidden;points=[[0,0.5],[1,0.5]];portConstraint=eastwest;rotatable=0;whiteSpace=wrap;html=1;rounded=0;labelBackgroundColor=none;shadow=0;swimlaneLine=1;fillOpacity=100;snapToPoint=0;fixDash=0;metaEdit=0;backgroundOutline=0;enumerate=0;comic=0;strokeColor=default;" parent="n4U7ndQowQ5HId22_Uco-18" vertex="1">
          <mxGeometry y="270" width="200" height="30" as="geometry" />
        </mxCell>
        <mxCell id="102" value="string: phone" style="text;align=left;verticalAlign=middle;spacingLeft=4;spacingRight=4;overflow=hidden;points=[[0,0.5],[1,0.5]];portConstraint=eastwest;rotatable=0;whiteSpace=wrap;html=1;rounded=0;labelBackgroundColor=none;shadow=0;swimlaneLine=1;fillOpacity=100;snapToPoint=0;fixDash=0;metaEdit=0;backgroundOutline=0;enumerate=0;comic=0;strokeColor=default;" parent="n4U7ndQowQ5HId22_Uco-18" vertex="1">
          <mxGeometry y="300" width="200" height="30" as="geometry" />
        </mxCell>
        <mxCell id="74" value="text: identifiantsFinanceurs" style="text;align=left;verticalAlign=middle;spacingLeft=4;spacingRight=4;overflow=hidden;points=[[0,0.5],[1,0.5]];portConstraint=eastwest;rotatable=0;whiteSpace=wrap;html=1;rounded=0;labelBackgroundColor=none;shadow=0;swimlaneLine=1;fillOpacity=100;snapToPoint=0;fixDash=0;metaEdit=0;backgroundOutline=0;enumerate=0;comic=0;strokeColor=default;" parent="n4U7ndQowQ5HId22_Uco-18" vertex="1">
          <mxGeometry y="330" width="200" height="30" as="geometry" />
        </mxCell>
        <mxCell id="n4U7ndQowQ5HId22_Uco-50" value="bool: visio" style="text;align=left;verticalAlign=middle;spacingLeft=4;spacingRight=4;overflow=hidden;points=[[0,0.5],[1,0.5]];portConstraint=eastwest;rotatable=0;whiteSpace=wrap;html=1;rounded=0;labelBackgroundColor=none;shadow=0;swimlaneLine=1;fillOpacity=100;snapToPoint=0;fixDash=0;metaEdit=0;backgroundOutline=0;enumerate=0;comic=0;strokeColor=default;" parent="n4U7ndQowQ5HId22_Uco-18" vertex="1">
          <mxGeometry y="360" width="200" height="30" as="geometry" />
        </mxCell>
        <mxCell id="n4U7ndQowQ5HId22_Uco-51" value="string: statut" style="text;align=left;verticalAlign=middle;spacingLeft=4;spacingRight=4;overflow=hidden;points=[[0,0.5],[1,0.5]];portConstraint=eastwest;rotatable=0;whiteSpace=wrap;html=1;rounded=0;labelBackgroundColor=none;shadow=0;swimlaneLine=1;fillOpacity=100;snapToPoint=0;fixDash=0;metaEdit=0;backgroundOutline=0;enumerate=0;comic=0;strokeColor=default;" parent="n4U7ndQowQ5HId22_Uco-18" vertex="1">
          <mxGeometry y="390" width="200" height="30" as="geometry" />
        </mxCell>
        <mxCell id="73" value="string: addressePostale" style="text;align=left;verticalAlign=middle;spacingLeft=4;spacingRight=4;overflow=hidden;points=[[0,0.5],[1,0.5]];portConstraint=eastwest;rotatable=0;whiteSpace=wrap;html=1;rounded=0;labelBackgroundColor=none;shadow=0;swimlaneLine=1;fillOpacity=100;snapToPoint=0;fixDash=0;metaEdit=0;backgroundOutline=0;enumerate=0;comic=0;strokeColor=default;" parent="n4U7ndQowQ5HId22_Uco-18" vertex="1">
          <mxGeometry y="420" width="200" height="30" as="geometry" />
        </mxCell>
        <mxCell id="n4U7ndQowQ5HId22_Uco-41" value="1..*" style="text;align=center;html=1;verticalAlign=middle;whiteSpace=wrap;rounded=0;labelBackgroundColor=none;shadow=0;swimlaneLine=1;fillOpacity=100;snapToPoint=0;fixDash=0;metaEdit=0;backgroundOutline=0;enumerate=0;comic=0;strokeColor=default;" parent="1" vertex="1">
          <mxGeometry x="104" y="617" width="60" height="40" as="geometry" />
        </mxCell>
        <mxCell id="2" value="Promotion" style="swimlane;fontStyle=0;childLayout=stackLayout;horizontal=1;startSize=30;horizontalStack=0;resizeParent=1;resizeParentMax=0;resizeLast=0;collapsible=1;marginBottom=0;whiteSpace=wrap;html=1;rounded=0;labelBackgroundColor=none;shadow=0;swimlaneLine=1;fillOpacity=100;snapToPoint=0;fixDash=0;metaEdit=0;backgroundOutline=0;enumerate=0;comic=0;strokeColor=default;" parent="1" vertex="1">
          <mxGeometry x="-457" y="-146" width="190" height="210" as="geometry" />
        </mxCell>
        <mxCell id="18" value="int: id" style="text;align=left;verticalAlign=middle;spacingLeft=4;spacingRight=4;overflow=hidden;points=[[0,0.5],[1,0.5]];portConstraint=eastwest;rotatable=0;whiteSpace=wrap;html=1;rounded=0;labelBackgroundColor=none;shadow=0;swimlaneLine=1;fillOpacity=100;snapToPoint=0;fixDash=0;metaEdit=0;backgroundOutline=0;enumerate=0;comic=0;strokeColor=default;" parent="2" vertex="1">
          <mxGeometry y="30" width="190" height="30" as="geometry" />
        </mxCell>
        <mxCell id="3" value="string: name" style="text;align=left;verticalAlign=middle;spacingLeft=4;spacingRight=4;overflow=hidden;points=[[0,0.5],[1,0.5]];portConstraint=eastwest;rotatable=0;whiteSpace=wrap;html=1;rounded=0;labelBackgroundColor=none;shadow=0;swimlaneLine=1;fillOpacity=100;snapToPoint=0;fixDash=0;metaEdit=0;backgroundOutline=0;enumerate=0;comic=0;strokeColor=default;" parent="2" vertex="1">
          <mxGeometry y="60" width="190" height="30" as="geometry" />
        </mxCell>
        <mxCell id="19" value="date: startDate" style="text;align=left;verticalAlign=middle;spacingLeft=4;spacingRight=4;overflow=hidden;points=[[0,0.5],[1,0.5]];portConstraint=eastwest;rotatable=0;whiteSpace=wrap;html=1;rounded=0;labelBackgroundColor=none;shadow=0;swimlaneLine=1;fillOpacity=100;snapToPoint=0;fixDash=0;metaEdit=0;backgroundOutline=0;enumerate=0;comic=0;strokeColor=default;" parent="2" vertex="1">
          <mxGeometry y="90" width="190" height="30" as="geometry" />
        </mxCell>
        <mxCell id="20" value="date: endDate" style="text;align=left;verticalAlign=middle;spacingLeft=4;spacingRight=4;overflow=hidden;points=[[0,0.5],[1,0.5]];portConstraint=eastwest;rotatable=0;whiteSpace=wrap;html=1;rounded=0;labelBackgroundColor=none;shadow=0;swimlaneLine=1;fillOpacity=100;snapToPoint=0;fixDash=0;metaEdit=0;backgroundOutline=0;enumerate=0;comic=0;strokeColor=default;" parent="2" vertex="1">
          <mxGeometry y="120" width="190" height="30" as="geometry" />
        </mxCell>
        <mxCell id="29" value="int: centre_formation_id" style="text;align=left;verticalAlign=middle;spacingLeft=4;spacingRight=4;overflow=hidden;points=[[0,0.5],[1,0.5]];portConstraint=eastwest;rotatable=0;whiteSpace=wrap;html=1;rounded=0;labelBackgroundColor=none;shadow=0;swimlaneLine=1;fillOpacity=100;snapToPoint=0;fixDash=0;metaEdit=0;backgroundOutline=0;enumerate=0;comic=0;strokeColor=default;" parent="2" vertex="1">
          <mxGeometry y="150" width="190" height="30" as="geometry" />
        </mxCell>
        <mxCell id="21" value="int: certification_id" style="text;align=left;verticalAlign=middle;spacingLeft=4;spacingRight=4;overflow=hidden;points=[[0,0.5],[1,0.5]];portConstraint=eastwest;rotatable=0;whiteSpace=wrap;html=1;rounded=0;labelBackgroundColor=none;shadow=0;swimlaneLine=1;fillOpacity=100;snapToPoint=0;fixDash=0;metaEdit=0;backgroundOutline=0;enumerate=0;comic=0;strokeColor=default;" parent="2" vertex="1">
          <mxGeometry y="180" width="190" height="30" as="geometry" />
        </mxCell>
        <mxCell id="77" style="edgeStyle=orthogonalEdgeStyle;rounded=0;html=1;startArrow=none;startFill=0;endArrow=classic;endFill=1;labelBackgroundColor=none;fontColor=default;shadow=0;swimlaneLine=1;fillOpacity=100;snapToPoint=0;fixDash=0;metaEdit=0;backgroundOutline=0;enumerate=0;comic=0;strokeColor=default;" parent="1" source="76" target="33" edge="1">
          <mxGeometry relative="1" as="geometry">
            <Array as="points">
              <mxPoint x="-690" y="495" />
            </Array>
          </mxGeometry>
        </mxCell>
        <mxCell id="23" value="Centre Formation" style="swimlane;fontStyle=0;childLayout=stackLayout;horizontal=1;startSize=30;horizontalStack=0;resizeParent=1;resizeParentMax=0;resizeLast=0;collapsible=1;marginBottom=0;whiteSpace=wrap;html=1;rounded=0;labelBackgroundColor=none;shadow=0;swimlaneLine=1;fillOpacity=100;snapToPoint=0;fixDash=0;metaEdit=0;backgroundOutline=0;enumerate=0;comic=0;strokeColor=default;" parent="1" vertex="1">
          <mxGeometry x="-951" y="163" width="190" height="180" as="geometry" />
        </mxCell>
        <mxCell id="24" value="int: id" style="text;align=left;verticalAlign=middle;spacingLeft=4;spacingRight=4;overflow=hidden;points=[[0,0.5],[1,0.5]];portConstraint=eastwest;rotatable=0;whiteSpace=wrap;html=1;rounded=0;labelBackgroundColor=none;shadow=0;swimlaneLine=1;fillOpacity=100;snapToPoint=0;fixDash=0;metaEdit=0;backgroundOutline=0;enumerate=0;comic=0;strokeColor=default;" parent="23" vertex="1">
          <mxGeometry y="30" width="190" height="30" as="geometry" />
        </mxCell>
        <mxCell id="25" value="string: name" style="text;align=left;verticalAlign=middle;spacingLeft=4;spacingRight=4;overflow=hidden;points=[[0,0.5],[1,0.5]];portConstraint=eastwest;rotatable=0;whiteSpace=wrap;html=1;rounded=0;labelBackgroundColor=none;shadow=0;swimlaneLine=1;fillOpacity=100;snapToPoint=0;fixDash=0;metaEdit=0;backgroundOutline=0;enumerate=0;comic=0;strokeColor=default;" parent="23" vertex="1">
          <mxGeometry y="60" width="190" height="30" as="geometry" />
        </mxCell>
        <mxCell id="26" value="date: debutActivite" style="text;align=left;verticalAlign=middle;spacingLeft=4;spacingRight=4;overflow=hidden;points=[[0,0.5],[1,0.5]];portConstraint=eastwest;rotatable=0;whiteSpace=wrap;html=1;rounded=0;labelBackgroundColor=none;shadow=0;swimlaneLine=1;fillOpacity=100;snapToPoint=0;fixDash=0;metaEdit=0;backgroundOutline=0;enumerate=0;comic=0;strokeColor=default;" parent="23" vertex="1">
          <mxGeometry y="90" width="190" height="30" as="geometry" />
        </mxCell>
        <mxCell id="27" value="date: finActivite" style="text;align=left;verticalAlign=middle;spacingLeft=4;spacingRight=4;overflow=hidden;points=[[0,0.5],[1,0.5]];portConstraint=eastwest;rotatable=0;whiteSpace=wrap;html=1;rounded=0;labelBackgroundColor=none;shadow=0;swimlaneLine=1;fillOpacity=100;snapToPoint=0;fixDash=0;metaEdit=0;backgroundOutline=0;enumerate=0;comic=0;strokeColor=default;" parent="23" vertex="1">
          <mxGeometry y="120" width="190" height="30" as="geometry" />
        </mxCell>
        <mxCell id="76" value="int: localisation_id" style="text;align=left;verticalAlign=middle;spacingLeft=4;spacingRight=4;overflow=hidden;points=[[0,0.5],[1,0.5]];portConstraint=eastwest;rotatable=0;whiteSpace=wrap;html=1;rounded=0;labelBackgroundColor=none;shadow=0;swimlaneLine=1;fillOpacity=100;snapToPoint=0;fixDash=0;metaEdit=0;backgroundOutline=0;enumerate=0;comic=0;strokeColor=default;" parent="23" vertex="1">
          <mxGeometry y="150" width="190" height="30" as="geometry" />
        </mxCell>
        <mxCell id="50" style="edgeStyle=orthogonalEdgeStyle;rounded=0;html=1;entryX=0.009;entryY=0.025;entryDx=0;entryDy=0;endArrow=none;endFill=0;labelBackgroundColor=none;fontColor=default;shadow=0;swimlaneLine=1;fillOpacity=100;snapToPoint=0;fixDash=0;metaEdit=0;backgroundOutline=0;enumerate=0;comic=0;strokeColor=default;entryPerimeter=0;exitX=0.999;exitY=0.083;exitDx=0;exitDy=0;exitPerimeter=0;" parent="1" source="33" target="n4U7ndQowQ5HId22_Uco-18" edge="1">
          <mxGeometry relative="1" as="geometry" />
        </mxCell>
        <mxCell id="33" value="Localisation" style="swimlane;fontStyle=0;childLayout=stackLayout;horizontal=1;startSize=30;horizontalStack=0;resizeParent=1;resizeParentMax=0;resizeLast=0;collapsible=1;marginBottom=0;whiteSpace=wrap;html=1;rounded=0;labelBackgroundColor=none;shadow=0;swimlaneLine=1;fillOpacity=100;snapToPoint=0;fixDash=0;metaEdit=0;backgroundOutline=0;enumerate=0;comic=0;strokeColor=default;" parent="1" vertex="1">
          <mxGeometry x="-605" y="250" width="190" height="240" as="geometry" />
        </mxCell>
        <mxCell id="34" value="int: id" style="text;align=left;verticalAlign=middle;spacingLeft=4;spacingRight=4;overflow=hidden;points=[[0,0.5],[1,0.5]];portConstraint=eastwest;rotatable=0;whiteSpace=wrap;html=1;rounded=0;labelBackgroundColor=none;shadow=0;swimlaneLine=1;fillOpacity=100;snapToPoint=0;fixDash=0;metaEdit=0;backgroundOutline=0;enumerate=0;comic=0;strokeColor=default;" parent="33" vertex="1">
          <mxGeometry y="30" width="190" height="30" as="geometry" />
        </mxCell>
        <mxCell id="36" value="string: adresse" style="text;align=left;verticalAlign=middle;spacingLeft=4;spacingRight=4;overflow=hidden;points=[[0,0.5],[1,0.5]];portConstraint=eastwest;rotatable=0;whiteSpace=wrap;html=1;rounded=0;labelBackgroundColor=none;shadow=0;swimlaneLine=1;fillOpacity=100;snapToPoint=0;fixDash=0;metaEdit=0;backgroundOutline=0;enumerate=0;comic=0;strokeColor=default;" parent="33" vertex="1">
          <mxGeometry y="60" width="190" height="30" as="geometry" />
        </mxCell>
        <mxCell id="35" value="int: codePostal" style="text;align=left;verticalAlign=middle;spacingLeft=4;spacingRight=4;overflow=hidden;points=[[0,0.5],[1,0.5]];portConstraint=eastwest;rotatable=0;whiteSpace=wrap;html=1;rounded=0;labelBackgroundColor=none;shadow=0;swimlaneLine=1;fillOpacity=100;snapToPoint=0;fixDash=0;metaEdit=0;backgroundOutline=0;enumerate=0;comic=0;strokeColor=default;" parent="33" vertex="1">
          <mxGeometry y="90" width="190" height="30" as="geometry" />
        </mxCell>
        <mxCell id="79" value="string: departement&amp;nbsp;" style="text;align=left;verticalAlign=middle;spacingLeft=4;spacingRight=4;overflow=hidden;points=[[0,0.5],[1,0.5]];portConstraint=eastwest;rotatable=0;whiteSpace=wrap;html=1;rounded=0;labelBackgroundColor=none;shadow=0;swimlaneLine=1;fillOpacity=100;snapToPoint=0;fixDash=0;metaEdit=0;backgroundOutline=0;enumerate=0;comic=0;strokeColor=default;" parent="33" vertex="1">
          <mxGeometry y="120" width="190" height="30" as="geometry" />
        </mxCell>
        <mxCell id="80" value="string: region" style="text;align=left;verticalAlign=middle;spacingLeft=4;spacingRight=4;overflow=hidden;points=[[0,0.5],[1,0.5]];portConstraint=eastwest;rotatable=0;whiteSpace=wrap;html=1;rounded=0;labelBackgroundColor=none;shadow=0;swimlaneLine=1;fillOpacity=100;snapToPoint=0;fixDash=0;metaEdit=0;backgroundOutline=0;enumerate=0;comic=0;strokeColor=default;" parent="33" vertex="1">
          <mxGeometry y="150" width="190" height="30" as="geometry" />
        </mxCell>
        <mxCell id="38" value="string: ville" style="text;align=left;verticalAlign=middle;spacingLeft=4;spacingRight=4;overflow=hidden;points=[[0,0.5],[1,0.5]];portConstraint=eastwest;rotatable=0;whiteSpace=wrap;html=1;rounded=0;labelBackgroundColor=none;shadow=0;swimlaneLine=1;fillOpacity=100;snapToPoint=0;fixDash=0;metaEdit=0;backgroundOutline=0;enumerate=0;comic=0;strokeColor=default;" parent="33" vertex="1">
          <mxGeometry y="180" width="190" height="30" as="geometry" />
        </mxCell>
        <mxCell id="37" value="string: pays" style="text;align=left;verticalAlign=middle;spacingLeft=4;spacingRight=4;overflow=hidden;points=[[0,0.5],[1,0.5]];portConstraint=eastwest;rotatable=0;whiteSpace=wrap;html=1;rounded=0;labelBackgroundColor=none;shadow=0;swimlaneLine=1;fillOpacity=100;snapToPoint=0;fixDash=0;metaEdit=0;backgroundOutline=0;enumerate=0;comic=0;strokeColor=default;" parent="33" vertex="1">
          <mxGeometry y="210" width="190" height="30" as="geometry" />
        </mxCell>
        <mxCell id="51" value="*..*" style="text;align=center;html=1;verticalAlign=middle;whiteSpace=wrap;rounded=0;labelBackgroundColor=none;shadow=0;swimlaneLine=1;fillOpacity=100;snapToPoint=0;fixDash=0;metaEdit=0;backgroundOutline=0;enumerate=0;comic=0;strokeColor=default;" parent="1" vertex="1">
          <mxGeometry x="-390" y="223" width="60" height="40" as="geometry" />
        </mxCell>
        <mxCell id="53" value="*..*" style="text;align=center;html=1;verticalAlign=middle;whiteSpace=wrap;rounded=0;labelBackgroundColor=none;shadow=0;swimlaneLine=1;fillOpacity=100;snapToPoint=0;fixDash=0;metaEdit=0;backgroundOutline=0;enumerate=0;comic=0;strokeColor=default;" parent="1" vertex="1">
          <mxGeometry x="-195" y="-118" width="60" height="40" as="geometry" />
        </mxCell>
        <mxCell id="55" style="edgeStyle=orthogonalEdgeStyle;rounded=0;html=1;exitX=0;exitY=0.5;exitDx=0;exitDy=0;startArrow=none;startFill=0;endArrow=classic;endFill=1;labelBackgroundColor=none;fontColor=default;shadow=0;swimlaneLine=1;fillOpacity=100;snapToPoint=0;fixDash=0;metaEdit=0;backgroundOutline=0;enumerate=0;comic=0;strokeColor=default;" parent="1" source="29" target="23" edge="1">
          <mxGeometry relative="1" as="geometry">
            <mxPoint x="-530" y="210" as="targetPoint" />
            <Array as="points">
              <mxPoint x="-645" y="19" />
              <mxPoint x="-645" y="210" />
            </Array>
          </mxGeometry>
        </mxCell>
        <mxCell id="56" value="1..*" style="text;align=center;html=1;verticalAlign=middle;whiteSpace=wrap;rounded=0;labelBackgroundColor=none;shadow=0;swimlaneLine=1;fillOpacity=100;snapToPoint=0;fixDash=0;metaEdit=0;backgroundOutline=0;enumerate=0;comic=0;strokeColor=default;" parent="1" vertex="1">
          <mxGeometry x="-532" y="33" width="60" height="40" as="geometry" />
        </mxCell>
        <mxCell id="57" value="*..1" style="text;align=center;html=1;verticalAlign=middle;whiteSpace=wrap;rounded=0;labelBackgroundColor=none;shadow=0;swimlaneLine=1;fillOpacity=100;snapToPoint=0;fixDash=0;metaEdit=0;backgroundOutline=0;enumerate=0;comic=0;strokeColor=default;" parent="1" vertex="1">
          <mxGeometry x="5" y="-181" width="60" height="40" as="geometry" />
        </mxCell>
        <mxCell id="78" value="*..1" style="text;align=center;html=1;verticalAlign=middle;whiteSpace=wrap;rounded=0;labelBackgroundColor=none;shadow=0;swimlaneLine=1;fillOpacity=100;snapToPoint=0;fixDash=0;metaEdit=0;backgroundOutline=0;enumerate=0;comic=0;strokeColor=default;" parent="1" vertex="1">
          <mxGeometry x="-700" y="321" width="60" height="40" as="geometry" />
        </mxCell>
        <mxCell id="85" value="departement et region via API depuisinput du codePostal ?&amp;nbsp;" style="shape=note;whiteSpace=wrap;html=1;backgroundOutline=0;darkOpacity=0.05;fillStyle=solid;direction=west;gradientDirection=north;shadow=0;size=20;pointerEvents=1;rounded=0;labelBackgroundColor=none;swimlaneLine=1;fillOpacity=100;snapToPoint=0;fixDash=0;metaEdit=0;enumerate=0;comic=0;strokeColor=default;" parent="1" vertex="1">
          <mxGeometry x="-605" y="499" width="140" height="85" as="geometry" />
        </mxCell>
        <mxCell id="94" style="edgeStyle=orthogonalEdgeStyle;rounded=0;html=1;startArrow=none;startFill=0;endArrow=classic;endFill=1;labelBackgroundColor=none;fontColor=default;shadow=0;swimlaneLine=1;fillOpacity=100;snapToPoint=0;fixDash=0;metaEdit=0;backgroundOutline=0;enumerate=0;comic=0;strokeColor=default;entryX=1;entryY=0.5;entryDx=0;entryDy=0;" parent="1" source="93" target="16" edge="1">
          <mxGeometry relative="1" as="geometry" />
        </mxCell>
        <mxCell id="87" value="Presence Web" style="swimlane;fontStyle=0;childLayout=stackLayout;horizontal=1;startSize=30;horizontalStack=0;resizeParent=1;resizeParentMax=0;resizeLast=0;collapsible=1;marginBottom=0;whiteSpace=wrap;html=1;rounded=0;labelBackgroundColor=none;fillColor=default;shadow=0;swimlaneLine=1;fillOpacity=100;snapToPoint=0;fixDash=0;metaEdit=0;backgroundOutline=0;enumerate=0;comic=0;strokeColor=default;" parent="1" vertex="1">
          <mxGeometry x="134" y="115" width="260" height="150" as="geometry">
            <mxRectangle x="-190" y="630" width="100" height="30" as="alternateBounds" />
          </mxGeometry>
        </mxCell>
        <mxCell id="88" value="int: id" style="text;align=left;verticalAlign=middle;spacingLeft=4;spacingRight=4;overflow=hidden;points=[[0,0.5],[1,0.5]];portConstraint=eastwest;rotatable=0;whiteSpace=wrap;html=1;rounded=0;labelBackgroundColor=none;shadow=0;swimlaneLine=1;fillOpacity=100;snapToPoint=0;fixDash=0;metaEdit=0;backgroundOutline=0;enumerate=0;comic=0;strokeColor=default;" parent="87" vertex="1">
          <mxGeometry y="30" width="260" height="30" as="geometry" />
        </mxCell>
        <mxCell id="89" value="string: type (site, facebook, etc, autre)" style="text;align=left;verticalAlign=middle;spacingLeft=4;spacingRight=4;overflow=hidden;points=[[0,0.5],[1,0.5]];portConstraint=eastwest;rotatable=0;whiteSpace=wrap;html=1;rounded=0;labelBackgroundColor=none;shadow=0;swimlaneLine=1;fillOpacity=100;snapToPoint=0;fixDash=0;metaEdit=0;backgroundOutline=0;enumerate=0;comic=0;strokeColor=default;" parent="87" vertex="1">
          <mxGeometry y="60" width="260" height="30" as="geometry" />
        </mxCell>
        <mxCell id="90" value="string: url" style="text;align=left;verticalAlign=middle;spacingLeft=4;spacingRight=4;overflow=hidden;points=[[0,0.5],[1,0.5]];portConstraint=eastwest;rotatable=0;whiteSpace=wrap;html=1;rounded=0;labelBackgroundColor=none;fillColor=none;shadow=0;swimlaneLine=1;fillOpacity=100;snapToPoint=0;fixDash=0;metaEdit=0;backgroundOutline=0;enumerate=0;comic=0;strokeColor=default;" parent="87" vertex="1">
          <mxGeometry y="90" width="260" height="30" as="geometry" />
        </mxCell>
        <mxCell id="93" value="int: stagiaire_id" style="text;align=left;verticalAlign=middle;spacingLeft=4;spacingRight=4;overflow=hidden;points=[[0,0.5],[1,0.5]];portConstraint=eastwest;rotatable=0;whiteSpace=wrap;html=1;rounded=0;labelBackgroundColor=none;shadow=0;swimlaneLine=1;fillOpacity=100;snapToPoint=0;fixDash=0;metaEdit=0;backgroundOutline=0;enumerate=0;comic=0;strokeColor=default;" parent="87" vertex="1">
          <mxGeometry y="120" width="260" height="30" as="geometry" />
        </mxCell>
        <mxCell id="95" value="1..*" style="text;align=center;html=1;verticalAlign=middle;whiteSpace=wrap;rounded=0;labelBackgroundColor=none;shadow=0;swimlaneLine=1;fillOpacity=100;snapToPoint=0;fixDash=0;metaEdit=0;backgroundOutline=0;enumerate=0;comic=0;strokeColor=default;" parent="1" vertex="1">
          <mxGeometry x="70" y="200" width="60" height="40" as="geometry" />
        </mxCell>
        <mxCell id="MeiVLNRS7NFo7emPaHsi-104" style="edgeStyle=orthogonalEdgeStyle;rounded=0;orthogonalLoop=1;jettySize=auto;html=1;exitX=1;exitY=0.5;exitDx=0;exitDy=0;entryX=1;entryY=0.5;entryDx=0;entryDy=0;" edge="1" parent="1" source="n4U7ndQowQ5HId22_Uco-44" target="n4U7ndQowQ5HId22_Uco-3">
          <mxGeometry relative="1" as="geometry" />
        </mxCell>
        <mxCell id="MeiVLNRS7NFo7emPaHsi-107" style="edgeStyle=orthogonalEdgeStyle;rounded=0;orthogonalLoop=1;jettySize=auto;html=1;exitX=1;exitY=0.5;exitDx=0;exitDy=0;" edge="1" parent="1" source="21" target="n4U7ndQowQ5HId22_Uco-3">
          <mxGeometry relative="1" as="geometry" />
        </mxCell>
        <mxCell id="MeiVLNRS7NFo7emPaHsi-110" value="1..*" style="text;align=center;html=1;verticalAlign=middle;whiteSpace=wrap;rounded=0;labelBackgroundColor=none;shadow=0;swimlaneLine=1;fillOpacity=100;snapToPoint=0;fixDash=0;metaEdit=0;backgroundOutline=0;enumerate=0;comic=0;strokeColor=default;" vertex="1" parent="1">
          <mxGeometry x="341" y="-183" width="60" height="40" as="geometry" />
        </mxCell>
        <mxCell id="MeiVLNRS7NFo7emPaHsi-111" style="edgeStyle=orthogonalEdgeStyle;rounded=0;orthogonalLoop=1;jettySize=auto;html=1;exitX=0;exitY=0.5;exitDx=0;exitDy=0;entryX=0;entryY=0.5;entryDx=0;entryDy=0;" edge="1" parent="1" source="n4U7ndQowQ5HId22_Uco-43" target="16">
          <mxGeometry relative="1" as="geometry" />
        </mxCell>
      </root>
    </mxGraphModel>
  </diagram>
</mxfile>
